<?xml version="1.0" encoding="UTF-8" standalone="no"?>
<!-- Created with Inkscape (http://www.inkscape.org/) -->

<svg
   width="124.3312mm"
   height="30.03418mm"
   viewBox="0 0 124.3312 30.034179"
   version="1.1"
   id="svg1"
   xml:space="preserve"
   inkscape:version="1.3 (0e150ed6c4, 2023-07-21)"
   sodipodi:docname="path4.svg"
   xmlns:inkscape="http://www.inkscape.org/namespaces/inkscape"
   xmlns:sodipodi="http://sodipodi.sourceforge.net/DTD/sodipodi-0.dtd"
   xmlns="http://www.w3.org/2000/svg"
   xmlns:svg="http://www.w3.org/2000/svg"><sodipodi:namedview
     id="namedview1"
     pagecolor="#ffffff"
     bordercolor="#000000"
     borderopacity="0.25"
     inkscape:showpageshadow="2"
     inkscape:pageopacity="0.0"
     inkscape:pagecheckerboard="0"
     inkscape:deskcolor="#d1d1d1"
     inkscape:document-units="mm"
     inkscape:zoom="0.94316065"
     inkscape:cx="396.00889"
     inkscape:cy="-44.000988"
     inkscape:window-width="1920"
     inkscape:window-height="974"
     inkscape:window-x="-11"
     inkscape:window-y="-11"
     inkscape:window-maximized="1"
     inkscape:current-layer="layer1" /><defs
     id="defs1" /><g
     inkscape:label="Ebene 1"
     inkscape:groupmode="layer"
     id="layer1"
     transform="translate(-42.457174,-75.429602)"><g
       id="g41"
       transform="translate(12.062721,-0.56105673)"><path
         style="fill:#0094a8;fill-opacity:1;stroke:#3fa500;stroke-width:0;stroke-dasharray:none;stroke-dashoffset:0;stroke-opacity:1"
         id="path4"
         d="m 33.778734,106.02484 c 0.1878,-0.0331 0.377364,-0.0581 0.563398,-0.0991 0.405124,-0.0895 1.158399,-0.30938 1.539678,-0.40958 0.97857,-0.25717 1.969245,-0.46693 2.958014,-0.68492 0.367363,-0.10869 0.737977,-0.20793 1.102092,-0.32608 0.880916,-0.28584 1.361217,-0.50199 2.239031,-0.80065 1.047431,-0.35638 2.119063,-0.62898 3.187593,-0.92014 1.217987,-0.34153 2.451614,-0.67488 3.624604,-1.14365 0.26118,-0.10437 0.512458,-0.22983 0.768688,-0.34475 0.262205,-0.10211 0.52441,-0.20422 0.786616,-0.30634 1.496291,-0.61832 2.942361,-1.337614 4.462748,-1.902034 1.577573,-0.82297 3.255186,-1.41592 4.970572,-1.91721 2.217996,-0.58326 4.496443,-0.88948 6.784338,-1.08043 3.519791,-0.40392 6.77396,0.28411 10.182672,1.02515 4.302272,1.0417 8.460844,2.5446 12.600564,4.053174 3.006455,1.03027 6.044773,1.97754 9.106441,2.84857 2.428727,0.74682 4.965067,0.92402 7.497147,1.05396 2.42913,0.10794 4.86113,0.13274 7.29253,0.1368 1.56827,-0.0437 3.14138,0.0365 4.70917,-0.0172 1.32717,-0.0455 1.74158,-0.11745 3.08158,-0.26456 1.90478,-0.3397 3.85441,-0.46257 5.75313,-0.83437 1.01481,-0.19871 1.34765,-0.33197 2.32386,-0.6374 2.41288,-0.82277 4.72876,-1.88084 7.10374,-2.79885 0.39627,-0.13324 0.79456,-0.26118 1.18882,-0.39972 1.44592,-0.508074 0.87714,-0.359054 2.32694,-0.807724 1.03119,-0.31912 2.08163,-0.57484 3.12977,-0.8373 1.99723,-0.47685 4.04792,-0.61143 6.09719,-0.68624 1.42357,-0.0625 2.84487,-0.0102 4.26684,0.0523 0,0 -3.23275,-2.2517 -3.23275,-2.2517 v 0 c -1.42372,-0.057 -2.84692,-0.0886 -4.27127,-0.0175 -2.07827,0.0678 -4.14499,0.23424 -6.16303,0.7466 -2.25536,0.57983 -4.46413,1.2806 -6.63211,2.11158 -2.36762,0.925 -4.68991,1.965934 -7.11024,2.760294 -2.60744,0.78575 -5.26424,1.07988 -7.9641,1.45189 -0.53186,0.049 -1.06237,0.11368 -1.59557,0.14703 -2.08156,0.13017 -4.17293,0.003 -6.25645,0.0435 -2.40631,-2.6e-4 -4.81401,0.006 -7.21793,-0.11252 -2.52835,-0.158 -5.047503,-0.40143 -7.472577,-1.14488 -3.008619,-0.85321 -6.005756,-1.748714 -8.955995,-2.771174 -4.158815,-1.48187 -8.318263,-3.00939 -12.639169,-4.01703 -3.415732,-0.71952 -6.884537,-1.43917 -10.402703,-1.03442 -2.30408,0.21387 -4.59889,0.53867 -6.829587,1.14328 -1.744951,0.49124 -3.435471,1.09988 -5.047544,1.91013 -1.5024,0.59853 -2.964102,1.28254 -4.452018,1.91247 -0.517706,0.20571 -1.02275,0.43943 -1.540492,0.64507 -1.164962,0.4627 -2.386722,0.786694 -3.59373,1.130924 -1.06169,0.31005 -2.125765,0.6073 -3.171702,0.96384 -0.857456,0.29229 -1.367947,0.50799 -2.232837,0.77313 -0.360466,0.1105 -0.72733,0.20121 -1.090994,0.30182 -0.712297,0.15177 -1.427285,0.29254 -2.136896,0.45525 -1.000842,0.22949 -1.987406,0.55745 -3.022351,0.61928 z" /><path
         style="font-size:22.5778px;font-family:Forte;-inkscape-font-specification:Forte;fill:#e89dab;fill-opacity:1;stroke:#a56300;stroke-width:0.7;stroke-dasharray:none"
         d="m 34.133527,86.159776 0.253559,-0.63941 q -1.234723,-0.0331 -1.730818,-0.24254 -0.48507,-0.22048 -0.48507,-0.74965 0,-0.42995 0.341754,-0.84887 0.385851,-0.52917 0.826824,-0.95912 0.440973,-0.44097 0.815799,-0.62838 0.319706,-0.1323 0.881946,-0.1323 1.367015,0 3.097833,0.15435 0.396875,0.022 0.661459,0.0331 0.264583,0.011 0.573264,0.0331 0.727605,0 0.926043,0.0331 0.198438,0.0221 0.474045,0.1323 0.187414,0.0661 0.319706,0.19843 0.275608,0.28664 0.275608,0.904 0,1.14653 -0.793751,1.46623 -0.463022,0.19844 -0.837848,0.26459 -0.374827,0.0551 -1.355991,0.14331 l -1.190626,3.94671 q 0.848872,0 1.378039,-0.0441 0.33073,-0.0221 1.014237,-0.0221 0.804775,0 1.135505,0.17639 0.330729,0.16536 0.330729,0.59531 0,0.33073 -0.319705,0.95912 -0.319705,0.62838 -0.694532,1.00321 -0.176389,0.17639 -0.496094,0.24254 -0.319705,0.0551 -1.091407,0.0551 h -0.154341 -0.275608 q -0.738629,0 -1.68672,0.0661 -0.496094,1.6757 -0.915018,2.56867 -0.418925,0.88194 -1.025262,1.49931 -0.418924,0.42995 -0.89297,0.66146 -0.463021,0.23151 -0.870921,0.23151 -0.672483,0 -1.168577,-0.38585 -0.48507,-0.38586 -0.48507,-0.89297 0,-0.61737 1.04731,-3.85852 1.04731,-3.24114 2.116669,-5.96415 z m 11.156608,7.47449 q 0.507119,-0.34176 0.771702,-0.68351 0.584289,-0.71658 0.903994,-1.64262 0.25356,-0.60634 0.396876,-1.356 0.143316,-0.74965 0.143316,-1.40008 0,-0.60634 -0.253559,-0.60634 -0.352779,0 -1.080383,1.55443 -0.429949,0.93706 -0.705557,1.87413 -0.264583,0.92604 -0.264583,1.59853 0,0.23151 0.08819,0.66146 z m 0.02205,0.35277 q 0.121267,0.66146 0.859897,0.66146 0.826823,0 2.149741,-0.97014 0.771703,-0.56224 1.036286,-0.56224 0.33073,0 0.617362,0.17639 0.286632,0.17639 0.286632,0.3638 0,0.19844 -0.319705,0.51815 -0.584289,0.58429 -1.344967,1.14653 -0.760678,0.55121 -1.466234,0.92604 -0.705556,0.3638 -1.411112,0.58429 -0.705557,0.20946 -1.256773,0.20946 -1.378039,0 -2.204863,-0.78273 -0.826824,-0.79375 -0.826824,-2.10564 0,-1.00321 0.429949,-2.25999 0.440972,-1.26779 1.179602,-2.37022 0.870921,-1.28985 2.138717,-2.14975 1.565453,-1.03628 2.998614,-1.03628 1.036286,0 1.620575,0.66146 0.595313,0.65043 0.595313,1.79696 0,0.89297 -0.474046,1.86311 -0.463021,0.97014 -1.378039,1.86311 -0.749654,0.74965 -1.477259,1.16858 -0.71658,0.41892 -1.256772,0.41892 -0.242535,0 -0.496094,-0.12127 z m 9.095062,3.54983 q 0.650435,-0.0331 1.179602,-0.62838 0.540192,-0.60634 0.540192,-1.3119 0,-0.48507 -0.319706,-0.7717 -0.341753,-0.34175 -1.53238,-0.67248 -1.752866,-0.50712 -2.282033,-1.13551 -0.496094,-0.50711 -0.496094,-1.21267 0,-1.2678 0.915018,-2.53559 0.926043,-1.2678 2.359204,-2.07257 1.433161,-0.8158 2.888371,-0.8158 0.705556,0 1.322918,0.33073 0.617361,0.33072 0.981164,0.88194 0.363802,0.54019 0.363802,1.1796 0,0.62839 -0.396875,1.30087 -0.396875,0.67249 -1.003213,1.12448 -0.595313,0.44097 -1.135505,0.44097 -0.30868,0 -0.540191,-0.13229 -0.220486,-0.13229 -0.220486,-0.28663 0,-0.15434 0.08819,-0.452 0.242535,-0.94809 0.242535,-1.65364 0,-0.69454 -0.418924,-1.3119 -0.540191,0.37483 -0.705556,0.59532 -0.418924,0.48507 -0.650435,1.10243 -0.253559,0.62838 -0.253559,1.19062 0,0.39688 0.176389,0.63941 0.187413,0.23151 0.595313,0.39688 0.418924,0.16536 1.256772,0.3638 1.400088,0.34176 1.973353,0.66146 0.132292,0.0772 0.4079,0.31971 0.418924,0.45199 0.418924,1.16857 0,0.76068 -0.474046,1.54341 -0.474046,0.7717 -1.466234,1.59852 -1.058335,0.89297 -2.105645,1.27882 -1.04731,0.38586 -2.315106,0.38586 -1.223699,0 -1.929256,-0.48507 -0.694532,-0.48507 -0.694532,-1.32292 0,-0.59532 0.463022,-1.20165 0.463021,-0.61736 1.146529,-1.00322 0.694532,-0.38585 1.355991,-0.38585 0.496094,0 0.496094,0.22049 0,0.11024 -0.143316,0.3638 -0.429949,0.7717 -0.429949,1.42214 0,0.46302 0.341754,0.88194 z m 8.929697,-11.13456 0.0441,-0.13229 q 0.727605,-2.05052 1.256773,-2.88837 0.253559,-0.39687 0.705556,-0.70555 0.848872,-0.5402 1.598526,-0.5402 0.440972,0 0.672483,0.19844 0.231511,0.19844 0.231511,0.57327 0,0.25356 -0.33073,1.03628 -0.56224,1.30087 -0.837848,2.43638 0.187414,0.022 0.363803,0.0661 0.661459,0.0992 0.870921,0.23151 0.209462,0.12127 0.209462,0.452 0,0.58429 -0.297657,1.08038 -0.297656,0.4961 -0.782726,0.72761 -0.363803,0.16536 -1.179602,0.22048 -0.143316,0.42995 -0.319705,1.17961 -0.09922,0.66145 -0.220487,1.83003 -0.06615,0.42995 -0.06615,0.80478 0,1.74184 1.686721,1.74184 h 0.06615 0.03307 q 0.198437,0 0.198437,0.0661 0,0.17638 -0.374826,0.59531 -0.374827,0.41892 -0.826824,0.73863 -0.48507,0.33073 -1.058335,0.52916 -0.573264,0.19844 -1.036285,0.19844 -1.157554,0 -1.885159,-0.78272 -0.71658,-0.78273 -0.71658,-2.07258 0,-0.55121 0.187413,-1.44418 0.198438,-0.89297 0.606338,-2.39228 0.06615,-0.26458 0.143316,-0.55121 0.07717,-0.29766 0.08819,-0.35278 -0.440972,-0.011 -0.628386,-0.18742 -0.187413,-0.17638 -0.187413,-0.57326 0,-0.69453 0.529167,-1.31189 0.540192,-0.61737 1.256772,-0.77171 z m 18.686217,5.80982 v -0.63941 q -0.562241,0.49609 -0.837849,0.49609 -0.15434,0 -0.15434,-0.15434 0,-0.0661 0.06615,-0.27561 0.231511,-0.66145 0.231511,-1.27882 0,-0.89297 -0.385852,-1.85208 -0.165364,-0.4961 -0.407899,-0.4961 -0.121268,0 -0.198438,0.11025 -0.363802,0.41892 -0.694532,1.19062 -0.330729,0.76068 -0.551216,1.66468 -0.209462,0.89297 -0.209462,1.5875 0,1.31189 0.793751,1.31189 0.396875,0 1.058334,-0.46302 0.672484,-0.47405 1.289846,-1.20165 z m 0.341753,-5.23655 0.110244,-0.452 q 0.341753,-1.51033 0.617361,-2.43637 0.275608,-0.93707 0.56224,-1.57648 0.297657,-0.65043 0.584289,-0.93707 0.463021,-0.49609 1.664672,-0.49609 0.529167,0 0.782727,0.0551 0.264583,0.0551 0.418924,0.19844 -0.529168,1.64262 -0.73863,2.46945 -0.198437,0.81579 -0.440972,2.24896 -0.374827,2.33715 -0.374827,4.22231 0,1.24575 0.198438,2.59071 0.209462,1.33395 0.672483,2.97657 -0.584289,0.4079 -1.12448,0.69453 -0.529168,0.28663 -1.014238,0.452 -0.474045,0.16536 -0.837848,0.16536 -0.63941,0 -0.903994,-0.62838 -0.220486,-0.51815 -0.286632,-0.82683 -0.06615,-0.3197 -0.23151,-1.75286 -1.477259,1.5434 -2.83325,2.43637 -1.344967,0.88195 -2.149742,0.88195 -0.926042,0 -1.521355,-0.74966 -0.584289,-0.76068 -0.584289,-1.9513 0,-1.06936 0.451997,-2.37023 0.463021,-1.31189 1.267796,-2.53559 0.529167,-0.80478 1.080383,-1.35599 0.56224,-0.56224 1.267797,-1.03629 1.27882,-0.83785 2.138717,-0.83785 0.418924,0 1.223699,0.55122 z m 9.392717,6.65869 q 0.507119,-0.34176 0.771702,-0.68351 0.584289,-0.71658 0.903994,-1.64262 0.25356,-0.60634 0.396876,-1.356 0.143316,-0.74965 0.143316,-1.40008 0,-0.60634 -0.253559,-0.60634 -0.352779,0 -1.080383,1.55443 -0.429949,0.93706 -0.705557,1.87413 -0.264583,0.92604 -0.264583,1.59853 0,0.23151 0.08819,0.66146 z m 0.02205,0.35277 q 0.121267,0.66146 0.859897,0.66146 0.826823,0 2.149741,-0.97014 0.771702,-0.56224 1.036286,-0.56224 0.33073,0 0.617362,0.17639 0.286632,0.17639 0.286632,0.3638 0,0.19844 -0.319705,0.51815 -0.584289,0.58429 -1.344967,1.14653 -0.760678,0.55121 -1.466234,0.92604 -0.705556,0.3638 -1.411112,0.58429 -0.705557,0.20946 -1.256773,0.20946 -1.378039,0 -2.204863,-0.78273 -0.826824,-0.79375 -0.826824,-2.10564 0,-1.00321 0.429949,-2.25999 0.440972,-1.26779 1.179602,-2.37022 0.870921,-1.28985 2.138717,-2.14975 1.565453,-1.03628 2.998614,-1.03628 1.036286,0 1.620575,0.66146 0.595313,0.65043 0.595313,1.79696 0,0.89297 -0.474046,1.86311 -0.463021,0.97014 -1.378039,1.86311 -0.749654,0.74965 -1.477259,1.16858 -0.71658,0.41892 -1.256772,0.41892 -0.242535,0 -0.496094,-0.12127 z m 9.547059,-0.28663 -0.0441,0.22049 q 0,0.18741 -0.0441,0.54019 -0.0441,0.54019 -0.12127,0.88195 -0.0772,0.34175 -0.23151,0.57326 -0.15434,0.22049 -0.41893,0.47405 -0.804771,0.73862 -1.620571,0.73862 -0.661459,0 -0.981164,-0.48507 -0.308681,-0.48507 -0.308681,-1.56545 0,-0.8599 0.187413,-2.11667 0.198438,-1.26779 0.474046,-2.27101 l 0.08819,-0.28663 q 0,-0.0661 0.06615,-0.27561 0.4079,-1.4993 0.749654,-2.21588 0.341754,-0.72761 0.826824,-1.16858 0.429949,-0.34176 0.970139,-0.34176 0.78273,0 0.94809,0.9481 0.15434,-0.1323 0.29766,-0.30869 0.31971,-0.38585 0.49609,-0.50711 0.17639,-0.1323 0.4079,-0.1323 0.9481,0 0.9481,1.87414 0,1.02526 -0.22049,1.98438 -0.22049,0.95911 -0.56224,1.56545 -0.33073,0.60634 -0.66146,0.60634 -0.3638,0 -0.3638,-1.37804 0,-0.72761 -0.0882,-1.13551 -0.0772,-0.41892 -0.25356,-0.65043 -0.33073,0.61736 -0.42994,2.82222 -0.0772,1.27882 -0.11025,1.60955 z m 15.89706,-6.09645 -0.3638,0.88195 q -0.71659,1.69774 -1.33395,3.38447 -0.29765,0.81579 -0.90399,2.84427 0.91502,-0.0772 2.45842,-0.38585 0.99219,-0.19844 1.20165,-0.19844 0.38585,0 0.38585,0.30868 0,0.3638 -0.42995,1.02526 -0.41892,0.65044 -0.94809,1.12448 -0.3638,0.34176 -1.08038,0.47405 -0.71658,0.13229 -2.23794,0.13229 -1.42213,0 -2.19383,-0.0882 -0.011,0 -0.36381,-0.11025 -0.62838,-0.26458 -0.62838,-1.10243 0,-0.60634 0.34175,-2.21589 0.35278,-1.60955 1.01424,-4.00182 1.4993,-5.33577 2.25998,-6.59255 0.24254,-0.42994 0.60634,-0.66145 0.37483,-0.24254 1.01424,-0.37483 0.61736,-0.13229 1.42213,-0.13229 0.74966,0 1.04731,0.19844 0.30868,0.18741 0.30868,0.66145 0,0.452 -0.39687,1.69775 -0.39688,1.23472 -1.1796,3.1309 z m 3.9908,9.56911 q -0.49609,-0.0331 -0.90399,-0.452 -0.4079,-0.44097 -0.58429,-0.94809 -0.16536,-0.51814 -0.16536,-1.33394 0,-1.81901 0.67248,-4.10104 0.68351,-2.29306 1.5434,-3.31832 0.34176,-0.42995 0.94809,-0.42995 0.63941,0 1.02527,0.58429 0.39687,0.58429 0.39687,1.53238 0,1.40008 -0.4079,3.28524 -0.39687,1.87414 -1.12448,3.90261 -0.28663,0.8158 -0.70555,1.10243 -0.28664,0.17639 -0.67249,0.17639 z m 1.32292,-11.07944 q -1.03628,-0.0331 -1.03628,-1.24574 0,-0.60634 0.29765,-1.40009 0.30868,-0.80478 0.69453,-1.19063 0.19844,-0.20946 0.39688,-0.29766 0.20946,-0.0882 0.52917,-0.0882 0.55121,0 0.80477,0.27561 0.26459,0.26458 0.26459,0.89297 0,0.78272 -0.27561,1.48828 -0.26459,0.69453 -0.71658,1.13551 -0.452,0.42994 -0.92605,0.42994 z m 6.50435,7.54064 q 0.50711,-0.34176 0.7717,-0.68351 0.58429,-0.71658 0.90399,-1.64262 0.25356,-0.60634 0.39688,-1.356 0.14331,-0.74965 0.14331,-1.40008 0,-0.60634 -0.25356,-0.60634 -0.35277,0 -1.08038,1.55443 -0.42995,0.93706 -0.70556,1.87413 -0.26458,0.92604 -0.26458,1.59853 0,0.23151 0.0882,0.66146 z m 0.022,0.35277 q 0.12127,0.66146 0.8599,0.66146 0.82682,0 2.14974,-0.97014 0.7717,-0.56224 1.03629,-0.56224 0.33073,0 0.61736,0.17639 0.28663,0.17639 0.28663,0.3638 0,0.19844 -0.3197,0.51815 -0.58429,0.58429 -1.34497,1.14653 -0.76068,0.55121 -1.46623,0.92604 -0.70556,0.3638 -1.41112,0.58429 -0.70555,0.20946 -1.25677,0.20946 -1.37804,0 -2.20486,-0.78273 -0.82683,-0.79375 -0.82683,-2.10564 0,-1.00321 0.42995,-2.25999 0.44098,-1.26779 1.1796,-2.37022 0.87093,-1.28985 2.13872,-2.14975 1.56545,-1.03628 2.99862,-1.03628 1.03628,0 1.62057,0.66146 0.59531,0.65043 0.59531,1.79696 0,0.89297 -0.47404,1.86311 -0.46302,0.97014 -1.37804,1.86311 -0.74965,0.74965 -1.47726,1.16858 -0.71658,0.41892 -1.25677,0.41892 -0.24254,0 -0.4961,-0.12127 z m 12.1488,-1.62057 q -0.27561,0.0882 -0.38585,0.0882 -0.38585,0 -0.63941,-0.28663 -0.24253,-0.28663 -0.24253,-0.7276 0,-0.87092 0.61736,-2.24896 0.61736,-1.37804 1.30087,-2.0395 0.49609,-0.4961 1.12448,-0.4961 0.48507,0 0.83784,0.33073 0.35278,0.31971 0.5402,0.93707 0.18741,0.60634 0.18741,1.42214 0,2.05052 -0.8599,3.84748 -0.85989,1.79697 -2.29305,2.86633 -1.43317,1.06935 -3.07579,1.06935 -1.06936,0 -1.86311,-0.50711 -0.79375,-0.50712 -1.23472,-1.45521 -0.42995,-0.95912 -0.42995,-2.21589 0,-1.19063 0.38585,-2.66789 0.38585,-1.48828 1.08038,-3.02066 0.69454,-1.5434 1.65365,-2.99861 1.01424,-1.57648 2.32613,-2.45843 0.904,-0.63941 1.89618,-0.63941 1.01424,0 1.62058,0.61737 0.60634,0.61736 0.60634,1.64262 0,0.7276 -0.56224,1.53238 -0.55122,0.79375 -1.40009,1.31189 -0.83785,0.51815 -1.64263,0.51815 -0.38585,0 -0.38585,-0.19844 0,-0.15434 0.31971,-0.56224 0.52917,-0.66146 0.89297,-1.52136 0.3638,-0.87092 0.3638,-1.51033 0,-0.58429 -0.17639,-0.58429 -0.22048,0 -0.68351,0.72761 -0.46302,0.7276 -0.82682,1.66467 -0.8599,2.24896 -1.32292,4.27743 -0.46302,2.01745 -0.46302,3.43959 0,1.06936 0.34176,1.80799 0.35277,0.7276 0.84887,0.7276 0.62838,0 1.04731,-0.70555 0.41892,-0.71658 0.49609,-1.98438 z m 8.05878,1.2678 q 0.50712,-0.34176 0.7717,-0.68351 0.58429,-0.71658 0.90399,-1.64262 0.25356,-0.60634 0.39688,-1.356 0.14331,-0.74965 0.14331,-1.40008 0,-0.60634 -0.25355,-0.60634 -0.35278,0 -1.08039,1.55443 -0.42995,0.93706 -0.70555,1.87413 -0.26459,0.92604 -0.26459,1.59853 0,0.23151 0.0882,0.66146 z m 0.022,0.35277 q 0.12126,0.66146 0.85989,0.66146 0.82683,0 2.14974,-0.97014 0.77171,-0.56224 1.03629,-0.56224 0.33073,0 0.61736,0.17639 0.28663,0.17639 0.28663,0.3638 0,0.19844 -0.3197,0.51815 -0.58429,0.58429 -1.34497,1.14653 -0.76068,0.55121 -1.46623,0.92604 -0.70556,0.3638 -1.41111,0.58429 -0.70556,0.20946 -1.25678,0.20946 -1.37804,0 -2.20486,-0.78273 -0.82682,-0.79375 -0.82682,-2.10564 0,-1.00321 0.42994,-2.25999 0.44098,-1.26779 1.17961,-2.37022 0.87092,-1.28985 2.13871,-2.14975 1.56546,-1.03628 2.99862,-1.03628 1.03628,0 1.62057,0.66146 0.59532,0.65043 0.59532,1.79696 0,0.89297 -0.47405,1.86311 -0.46302,0.97014 -1.37804,1.86311 -0.74965,0.74965 -1.47726,1.16858 -0.71658,0.41892 -1.25677,0.41892 -0.24254,0 -0.49609,-0.12127 z"
         id="text1"
         aria-label="Fest der Liebe" /><text
         xml:space="preserve"
         style="font-style:normal;font-variant:normal;font-weight:normal;font-stretch:normal;font-size:10.937px;font-family:Forte;-inkscape-font-specification:Forte;fill:#e18594;fill-opacity:1;stroke:#a56300;stroke-width:0.290649;stroke-dasharray:none;stroke-dashoffset:0;stroke-opacity:1"
         x="117.11503"
         y="85.383438"
         id="text2"><tspan
           sodipodi:role="line"
           id="tspan1"
           style="stroke-width:0.290649"
           x="117.11503"
           y="85.383438">💕</tspan></text></g></g></svg>
